<svg viewBox="0 0 74.5347 111.535" xmlns="http://www.w3.org/2000/svg"
    xmlns:xlink="http://www.w3.org/1999/xlink" width="74.534668" height="111.534668" fill="none"
    customFrame="#000000">
    <path id="Star 11"
        d="M19.9018 11.4374L16.2028 1.44077L15.6696 0L15.1365 1.44077L11.4374 11.4374L1.44077 15.1365L1.77636e-15 15.6696L1.44077 16.2028L11.4374 19.9018L15.1365 29.8985L15.6696 31.3392L16.2028 29.8985L19.9018 19.9018L29.8985 16.2028L31.3392 15.6696L29.8985 15.1365L19.9018 11.4374ZM28.4577 15.6696L19.5548 12.3753L19.1236 12.2157L15.6696 2.88154L12.2157 12.2157L2.88154 15.6696L12.2157 19.1236L15.6696 28.4577L19.1236 19.1236L28.4577 15.6696Z"
        fill="rgb(188,236,48)" fill-rule="evenodd"
        transform="matrix(0.995484,0.0949294,-0.0949294,0.995484,2.9751,0)" />
    <path id="Star 12"
        d="M34.6724 19.9259L27.8323 1.44077L27.2991 0L26.766 1.44077L19.9259 19.9259L1.44077 26.766L3.55271e-15 27.2991L1.44077 27.8323L19.9259 34.6724L26.766 53.1575L27.2991 54.5983L27.8323 53.1575L34.6724 34.6724L53.1575 27.8323L54.5983 27.2991L53.1575 26.766L34.6724 19.9259ZM51.7167 27.2991L34.3254 20.8637L33.8941 20.7042L27.2991 2.88154L20.7042 20.7042L2.88154 27.2991L20.7042 33.8941L27.2991 51.7167L33.8941 33.8941L51.7167 27.2991Z"
        fill="rgb(188,236,48)" fill-rule="evenodd"
        transform="matrix(0.995484,0.0949294,-0.0949294,0.995484,20.1831,52)" />
</svg>