<svg width="113" height="103" viewBox="0 0 113 103" fill="none" xmlns="http://www.w3.org/2000/svg">
<path d="M88.2013 60.2972L88.2596 60.5196L88.4668 60.6198L111.385 71.6754L86.7902 78.2012L86.5679 78.2594L86.4687 78.4667L75.4121 101.385L68.8873 76.7902L68.8281 76.5677L68.6207 76.4685L45.7026 65.4119L70.2973 58.8871L70.5197 58.8279L70.6199 58.6207L81.6755 35.7024L88.2013 60.2972Z" stroke="#BCEC30"/>
<path d="M22.4144 13.5956L22.4673 13.8196L22.6716 13.9257L33.6135 19.5949L21.6166 22.4141L21.3925 22.4669L21.2864 22.6712L15.6163 33.6131L12.798 21.6163L12.7452 21.3922L12.5409 21.2861L1.5981 15.6159L13.5959 12.7977L13.8199 12.7449L13.926 12.5406L19.5953 1.59767L22.4144 13.5956Z" stroke="#BCEC30"/>
</svg>
