<svg width="148" height="113" viewBox="0 0 148 113" fill="none" xmlns="http://www.w3.org/2000/svg">
    <path
        d="M23.0273 13.6768L23.1074 13.8926L23.3232 13.9727L35.5586 18.5L23.3232 23.0273L23.1074 23.1074L23.0273 23.3232L18.5 35.5586L13.9727 23.3232L13.8926 23.1074L13.6768 23.0273L1.44043 18.5L13.6768 13.9727L13.8926 13.8926L13.9727 13.6768L18.5 1.44043L23.0273 13.6768Z"
        fill="#BCEC30" stroke="#202027" />
    <path
        d="M117.24 60.4648L117.319 60.6807L117.535 60.7598L146.559 71.5L117.535 82.2402L117.319 82.3193L117.24 82.5352L106.5 111.559L95.7598 82.5352L95.6807 82.3193L95.4648 82.2402L66.4404 71.5L95.4648 60.7598L95.6807 60.6807L95.7598 60.4648L106.5 31.4404L117.24 60.4648Z"
        stroke="#202027" />
</svg>